<?xml version="1.0" encoding="UTF-8"?>
<!DOCTYPE svg PUBLIC "-//W3C//DTD SVG 1.1//EN" "http://www.w3.org/Graphics/SVG/1.1/DTD/svg11.dtd">
<svg version="1.2" width="10mm" height="10mm" viewBox="0 0 1000 1000" preserveAspectRatio="xMidYMid" fill-rule="evenodd" stroke-width="28.222" stroke-linejoin="round" xmlns="http://www.w3.org/2000/svg" xmlns:ooo="http://xml.openoffice.org/svg/export" xmlns:xlink="http://www.w3.org/1999/xlink" xmlns:presentation="http://sun.com/xmlns/staroffice/presentation" xmlns:smil="http://www.w3.org/2001/SMIL20/" xmlns:anim="urn:oasis:names:tc:opendocument:xmlns:animation:1.0" xml:space="preserve">
 <defs class="ClipPathGroup">
  <clipPath id="presentation_clip_path" clipPathUnits="userSpaceOnUse">
   <rect x="0" y="0" width="1000" height="1000"/>
  </clipPath>
  <clipPath id="presentation_clip_path_shrink" clipPathUnits="userSpaceOnUse">
   <rect x="1" y="1" width="998" height="998"/>
  </clipPath>
 </defs>
 <defs class="TextShapeIndex">
  <g ooo:slide="id1" ooo:id-list="id3 id4 id5 id6 id7 id8 id9 id10"/>
 </defs>
 <defs class="EmbeddedBulletChars">
  <g id="bullet-char-template(57356)" transform="scale(0.00048828125,-0.00048828125)">
   <path d="M 580,1141 L 1163,571 580,0 -4,571 580,1141 Z"/>
  </g>
  <g id="bullet-char-template(57354)" transform="scale(0.00048828125,-0.00048828125)">
   <path d="M 8,1128 L 1137,1128 1137,0 8,0 8,1128 Z"/>
  </g>
  <g id="bullet-char-template(10146)" transform="scale(0.00048828125,-0.00048828125)">
   <path d="M 174,0 L 602,739 174,1481 1456,739 174,0 Z M 1358,739 L 309,1346 659,739 1358,739 Z"/>
  </g>
  <g id="bullet-char-template(10132)" transform="scale(0.00048828125,-0.00048828125)">
   <path d="M 2015,739 L 1276,0 717,0 1260,543 174,543 174,936 1260,936 717,1481 1274,1481 2015,739 Z"/>
  </g>
  <g id="bullet-char-template(10007)" transform="scale(0.00048828125,-0.00048828125)">
   <path d="M 0,-2 C -7,14 -16,27 -25,37 L 356,567 C 262,823 215,952 215,954 215,979 228,992 255,992 264,992 276,990 289,987 310,991 331,999 354,1012 L 381,999 492,748 772,1049 836,1024 860,1049 C 881,1039 901,1025 922,1006 886,937 835,863 770,784 769,783 710,716 594,584 L 774,223 C 774,196 753,168 711,139 L 727,119 C 717,90 699,76 672,76 641,76 570,178 457,381 L 164,-76 C 142,-110 111,-127 72,-127 30,-127 9,-110 8,-76 1,-67 -2,-52 -2,-32 -2,-23 -1,-13 0,-2 Z"/>
  </g>
  <g id="bullet-char-template(10004)" transform="scale(0.00048828125,-0.00048828125)">
   <path d="M 285,-33 C 182,-33 111,30 74,156 52,228 41,333 41,471 41,549 55,616 82,672 116,743 169,778 240,778 293,778 328,747 346,684 L 369,508 C 377,444 397,411 428,410 L 1163,1116 C 1174,1127 1196,1133 1229,1133 1271,1133 1292,1118 1292,1087 L 1292,965 C 1292,929 1282,901 1262,881 L 442,47 C 390,-6 338,-33 285,-33 Z"/>
  </g>
  <g id="bullet-char-template(9679)" transform="scale(0.00048828125,-0.00048828125)">
   <path d="M 813,0 C 632,0 489,54 383,161 276,268 223,411 223,592 223,773 276,916 383,1023 489,1130 632,1184 813,1184 992,1184 1136,1130 1245,1023 1353,916 1407,772 1407,592 1407,412 1353,268 1245,161 1136,54 992,0 813,0 Z"/>
  </g>
  <g id="bullet-char-template(8226)" transform="scale(0.00048828125,-0.00048828125)">
   <path d="M 346,457 C 273,457 209,483 155,535 101,586 74,649 74,723 74,796 101,859 155,911 209,963 273,989 346,989 419,989 480,963 531,910 582,859 608,796 608,723 608,648 583,586 532,535 482,483 420,457 346,457 Z"/>
  </g>
  <g id="bullet-char-template(8211)" transform="scale(0.00048828125,-0.00048828125)">
   <path d="M -4,459 L 1135,459 1135,606 -4,606 -4,459 Z"/>
  </g>
  <g id="bullet-char-template(61548)" transform="scale(0.00048828125,-0.00048828125)">
   <path d="M 173,740 C 173,903 231,1043 346,1159 462,1274 601,1332 765,1332 928,1332 1067,1274 1183,1159 1299,1043 1357,903 1357,740 1357,577 1299,437 1183,322 1067,206 928,148 765,148 601,148 462,206 346,322 231,437 173,577 173,740 Z"/>
  </g>
 </defs>
 <defs class="TextEmbeddedBitmaps"/>
 <g>
  <g id="id2" class="Master_Slide">
   <g id="bg-id2" class="Background"/>
   <g id="bo-id2" class="BackgroundObjects"/>
  </g>
 </g>
 <g class="SlideGroup">
  <g>
   <g id="container-id1">
    <g id="id1" class="Slide" clip-path="url(#presentation_clip_path)">
     <g class="Page">
      <g class="Group">
       <g class="Group">
        <g class="com.sun.star.drawing.PolyPolygonShape">
         <g id="id3">
          <rect class="BoundingBox" stroke="none" fill="none" x="276" y="279" width="441" height="441"/>
          <path fill="rgb(114,159,207)" stroke="none" d="M 276,719 L 276,389 386,279 716,279 716,608 605,719 276,719 Z M 276,279 L 276,279 Z M 716,719 L 716,719 Z"/>
         </g>
        </g>
        <g class="com.sun.star.drawing.ClosedBezierShape">
         <g id="id4">
          <rect class="BoundingBox" stroke="none" fill="none" x="265" y="268" width="464" height="463"/>
          <path fill="rgb(52,101,164)" stroke="none" d="M 271,728 C 269,727 268,726 267,724 265,722 265,721 265,719 L 265,389 C 265,387 265,385 267,383 267,382 268,381 268,381 L 378,271 C 378,271 379,270 380,270 382,268 384,268 386,268 L 716,268 C 718,268 719,268 721,270 723,271 724,272 725,274 727,276 727,277 727,279 L 727,608 C 727,610 727,612 725,614 725,615 724,616 724,616 L 613,727 C 613,727 612,728 611,728 609,730 607,730 605,730 L 276,730 C 274,730 273,730 271,728 Z M 704,291 L 390,291 288,393 288,707 600,707 704,603 704,291 Z"/>
         </g>
        </g>
       </g>
       <g class="Group">
        <g class="com.sun.star.drawing.PolyPolygonShape">
         <g id="id5">
          <rect class="BoundingBox" stroke="none" fill="none" x="276" y="279" width="441" height="441"/>
          <path fill="rgb(153,204,255)" stroke="none" d="M 276,389 L 386,279 716,279 605,389 276,389 Z M 276,279 L 276,279 Z M 716,719 L 716,719 Z"/>
         </g>
        </g>
        <g class="com.sun.star.drawing.ClosedBezierShape">
         <g id="id6">
          <rect class="BoundingBox" stroke="none" fill="none" x="265" y="268" width="464" height="134"/>
          <path fill="rgb(153,204,255)" stroke="none" d="M 271,399 C 269,398 268,396 267,394 265,393 265,391 265,389 265,387 265,385 267,383 267,382 268,381 268,381 L 378,271 C 378,271 379,270 380,270 382,268 384,268 386,268 L 716,268 C 718,268 719,268 721,270 723,271 724,272 725,274 727,276 727,277 727,279 727,282 727,283 725,285 725,286 724,287 724,288 L 613,397 C 613,398 612,398 611,399 609,400 607,400 605,400 L 276,400 C 274,400 273,400 271,399 Z M 304,377 L 600,377 688,291 390,291 304,377 Z"/>
         </g>
        </g>
       </g>
       <g class="Group">
        <g class="com.sun.star.drawing.PolyPolygonShape">
         <g id="id7">
          <rect class="BoundingBox" stroke="none" fill="none" x="276" y="279" width="441" height="441"/>
          <path fill="rgb(52,101,164)" stroke="none" d="M 605,719 L 605,389 716,279 716,608 605,719 Z M 276,279 L 276,279 Z M 716,719 L 716,719 Z"/>
         </g>
        </g>
        <g class="com.sun.star.drawing.ClosedBezierShape">
         <g id="id8">
          <rect class="BoundingBox" stroke="none" fill="none" x="593" y="268" width="135" height="463"/>
          <path fill="rgb(52,101,164)" stroke="none" d="M 611,728 C 609,730 607,730 605,730 603,730 601,730 599,728 598,727 596,726 595,724 594,722 594,721 594,719 L 594,389 C 594,387 594,385 595,383 596,382 596,381 597,381 L 707,271 C 708,271 709,270 710,270 712,268 713,268 716,268 718,268 719,268 721,270 723,271 724,272 725,274 727,276 727,277 727,279 L 727,608 C 727,610 727,612 725,614 725,615 724,616 724,616 L 613,727 C 613,727 612,728 611,728 Z M 617,691 L 704,603 704,307 617,393 617,691 Z"/>
         </g>
        </g>
       </g>
      </g>
      <g class="Group">
       <g class="com.sun.star.drawing.CustomShape">
        <g id="id9">
         <rect class="BoundingBox" stroke="none" fill="none" x="-133" y="42" width="1253" height="636"/>
         <path fill="rgb(0,0,0)" stroke="none" d="M 774,345 L 766,331 757,317 747,303 737,291 725,279 715,268 702,256 690,246 676,237 663,228 649,220 635,212 620,205 605,199 589,194 574,189 558,185 541,183 525,181 509,179 493,178 477,179 461,180 444,182 428,185 412,188 396,193 381,198 366,204 352,211 336,218 322,226 309,235 296,245 284,255 271,266 259,277 248,289 238,302 228,315 219,328 211,342 203,357 196,371 190,386 184,402 180,417 49,383 56,361 63,339 73,318 83,296 93,276 105,256 118,237 132,219 147,200 163,183 179,167 196,152 214,137 233,124 252,111 273,99 293,89 314,79 336,71 357,63 380,57 402,53 425,48 448,45 471,44 495,43 517,44 541,46 563,49 586,52 609,58 630,64 653,72 674,80 696,90 716,101 736,112 755,126 774,139 791,153 809,169 825,185 841,202 855,221 869,239 882,258 894,278 993,223 923,472 675,401 774,345 Z M -132,328 L -132,328 Z M 1118,676 L 1118,676 Z"/>
        </g>
       </g>
       <g class="com.sun.star.drawing.CustomShape">
        <g id="id10">
         <rect class="BoundingBox" stroke="none" fill="none" x="-116" y="329" width="1251" height="636"/>
         <path fill="rgb(0,0,0)" stroke="none" d="M 219,664 L 227,678 236,692 246,706 257,719 267,731 280,743 292,754 305,765 318,775 332,784 346,793 361,801 376,808 391,815 407,820 423,825 440,829 456,831 473,835 488,836 506,837 522,837 538,835 556,834 571,831 588,827 604,824 620,818 635,812 651,805 665,798 680,790 695,781 707,771 721,761 734,750 745,738 757,727 768,714 778,700 787,687 797,672 804,658 812,643 819,628 824,612 829,596 951,630 943,652 935,674 926,695 916,715 904,736 893,756 880,775 866,793 850,811 835,828 818,843 801,858 783,872 764,886 745,898 725,909 704,920 683,928 661,937 639,944 617,951 594,955 571,959 549,962 525,963 503,963 480,962 457,960 434,958 412,953 389,947 367,940 345,933 323,925 303,914 283,904 263,892 244,879 226,865 207,850 190,834 174,818 159,801 144,783 131,764 118,745 107,725 7,780 77,539 319,609 219,664 Z M 1134,678 L 1134,678 Z M -116,330 L -116,330 Z"/>
        </g>
       </g>
      </g>
     </g>
    </g>
   </g>
  </g>
 </g>
</svg>